<svg xmlns="http://www.w3.org/2000/svg" xmlns:xlink="http://www.w3.org/1999/xlink" width="600" height="600" viewBox="0 0 600 600">
  <defs>
    <clipPath id="a">
      <path d="M393.105,326.124a14.576,14.576,0,0,0-1.848,5.9,5.532,5.532,0,0,0,3.216,5.19,12.219,12.219,0,0,0,4.8.682l73.718.654-.084-12.849C445.474,325.284,418.041,324.871,393.105,326.124Z" fill="none"/>
    </clipPath>
    <clipPath id="b">
      <path d="M118.03,364.257a1193.707,1193.707,0,0,1,132.942,2.615c7.461.565,15,1.217,22.088,3.636,1.534.523,3.327,1.558,3.187,3.176-.13,1.468-1.776,2.23-3.181,2.672-26.707,8.4-55.4,6.654-83.337,4.826-20.167-1.319-40.431-2.651-60.152-7.08a23.315,23.315,0,0,1-7.554-2.7A8.03,8.03,0,0,1,118.03,364.257Z" fill="none"/>
    </clipPath>
    <clipPath id="c">
      <path d="M158.905,314.83c-2.182,5.19-4.287,11.46-1.133,16.123,2.5,3.7,7.374,4.829,11.794,5.476,19.815,2.9,39.979,2.051,59.96.67,4.893-.339,10.006-.778,14.172-3.374s6.976-8.062,4.957-12.532c-2.277-5.025-8.811-6.094-14.312-6.484C208.919,312.912,183.255,311.12,158.905,314.83Z" fill="none"/>
    </clipPath>
  </defs>
  <title>Online Taxi</title>
  <g>
    <path d="M172.692,415.317s-69.981-46.652-75.813-99.139.972-139.962,99.14-134.132,113.722-71.926,217.722-43.739S556,286.273,492.471,382.273C428.553,478.86,194.076,436.7,172.692,415.317Z" fill="#fcf7f7"/>
    <g>
      <path d="M116.818,402.4c-11.728-53.809-4.412-109.851,5.806-163.967,3.383-17.92,7.735-37,21.051-49.457,3.167-2.965,6.887-5.512,11.119-6.457s9.045-.042,12.08,3.057c3.463,3.538,3.943,8.951,4.146,13.9,1.746,42.415-2.542,85.075-13.694,130.842-4.923,20.85-10.3,42.146-22.362,59.853-3.95,5.8-9.114,11.46-15.993,12.823S103.761,399.133,116.818,402.4Z" fill="#bba211"/>
      <path d="M170.226,246.727c-16.008,18.193-36.639,11.381-52.761,30.145-.677.79-1.323,1.606-1.973,2.418-3.38,33.615-5.844,87.275,1.326,120.174-13.057-3.263-4.729,1.954,2.153.591s12.043-7.027,15.993-12.823c12.061-17.708,17.439-39,22.362-59.853A487.908,487.908,0,0,0,170.226,246.727Z" fill="#a58c0f"/>
      <path d="M118.646,398.647a1.464,1.464,0,0,1-1.39-1.932A561.724,561.724,0,0,0,146.23,229.377a1.438,1.438,0,0,1,1.494-1.436,1.465,1.465,0,0,1,1.437,1.5,564.717,564.717,0,0,1-29.124,168.21A1.467,1.467,0,0,1,118.646,398.647Z" fill="#917b0c"/>
      <path d="M42.41,395.891A55.771,55.771,0,0,1,8.87,384.524c-5.1-3.9-9.865-9.767-8.69-16.08,1.149-6.172,7.8-10.066,14.079-10.229s12.237,2.492,17.95,5.093c-4.66-3.82-8.994-8.453-10.671-14.239s.03-12.888,5.217-15.948c4.047-2.387,9.314-1.853,13.514.256s7.536,5.58,10.668,9.083A219.049,219.049,0,0,1,76.95,378.277c1.456,2.5,2.911,5.389,2.111,8.173-.853,2.963-3.921,4.644-6.781,5.8C59.95,397.205,46.09,398.272,42.41,395.891Z" fill="#917b0c"/>
      <path d="M76.95,378.277A219.049,219.049,0,0,0,50.937,342.46c-.578-.648-1.169-1.29-1.765-1.927A129.013,129.013,0,0,1,33.09,394.386c-.114.2-.229.4-.341.606a54.53,54.53,0,0,0,9.661.9c3.68,2.381,17.54,1.314,29.87-3.645a20.3,20.3,0,0,0,3.364-1.686,39.137,39.137,0,0,0,3.556-6.739A15.972,15.972,0,0,0,76.95,378.277Z" fill="#75600a"/>
      <path d="M79.836,399.4A117.524,117.524,0,0,1,74.055,266.23c3.133-5,6.751-9.871,11.671-13.127s11.379-4.676,16.831-2.417c6.729,2.792,10.209,10.146,12.61,17.024a160.994,160.994,0,0,1,5.146,87.226c-3.5,15.8-9.83,31.687-22.019,42.329-5.106,4.458-11.739,7.988-18.427,6.9S67.48,395.6,79.836,399.4Z" fill="#bba211"/>
      <path d="M163.1,307.108a61.644,61.644,0,0,1,14.69-49.288c3.011-3.384,7.4-6.674,11.685-5.2,3,1.031,4.838,4.2,5.224,7.352s-.4,6.3-1.177,9.376a52.007,52.007,0,0,1,30.158-27.782c6.947-2.408,16-2.669,20.256,3.324,4.241,5.964,1.107,14.311-3.014,20.36C223.979,290.119,190.737,302.6,163.1,307.108Z" fill="#917b0c"/>
      <path d="M121.705,293.138c-.561.348-1.113.7-1.646,1.043a98.571,98.571,0,0,1-62.282,15.136,116.668,116.668,0,0,0-1.538,24.4,118.365,118.365,0,0,0,23.6,65.686c-12.356-3.8-6.658,3.663.031,4.758s13.321-2.437,18.427-6.9c12.189-10.642,18.524-26.532,22.019-42.329A160.958,160.958,0,0,0,121.705,293.138Z" fill="#a58c0f"/>
      <path d="M90.342,398.276a1.32,1.32,0,0,1-.176-.011,1.465,1.465,0,0,1-1.282-1.628,643.459,643.459,0,0,0,3.861-103.894,1.466,1.466,0,1,1,2.929-.13A646.822,646.822,0,0,1,91.8,396.983,1.468,1.468,0,0,1,90.342,398.276Z" fill="#917b0c"/>
      <path d="M512.226,359.523a55.491,55.491,0,0,1,28.043-25.959c4.338-1.79,9.367-3,13.651-1.074,7.423,3.334,8.172,14.083,4.48,21.336s-10.309,12.577-14.753,19.395a82.417,82.417,0,0,1,40.059-8.332c4.911.232,10.255,1.136,13.509,4.822,3.346,3.784,3.468,9.64,1.476,14.281s-5.74,8.285-9.619,11.523c-18.8,15.7-42.264,24.542-65.514,32.238-6,1.984-12.4,3.929-18.52,2.371-7.4-1.886-12.645-8.5-16.016-15.344-6.282-12.75-7.893-28.011-3.093-41.389S502.264,348.934,512.226,359.523Z" fill="#bba211"/>
      <path d="M597.215,369.711c-3.254-3.686-8.6-4.59-13.509-4.822-1.134-.053-2.271-.045-3.408-.051l-.047.037a40.537,40.537,0,0,0-14.177,20.688,40.254,40.254,0,0,0,29.588,3.422,22.489,22.489,0,0,0,3.029-4.993C600.683,379.351,600.561,373.5,597.215,369.711Z" fill="#d3b41a"/>
      <path d="M566.8,408.955c-5.6-3.718-12.3-5.319-18.677-7.448a111.352,111.352,0,0,1-54.119-39.435c8.2,12.652-1.789,19.237-8.377,28.81a37,37,0,0,0-2.274,3.775,57.266,57.266,0,0,0,5.665,20.123c3.371,6.847,8.619,13.458,16.016,15.344,6.119,1.558,12.524-.387,18.52-2.371,15.123-5.006,30.33-10.513,44.291-18.061Q567.338,409.308,566.8,408.955Z" fill="#a58c0f"/>
      <path d="M504.142,414.322a1.467,1.467,0,0,1-.265-2.909,117.107,117.107,0,0,0,61.367-32.337,1.467,1.467,0,0,1,2.081,2.067A120.074,120.074,0,0,1,504.409,414.3,1.427,1.427,0,0,1,504.142,414.322Z" fill="#917b0c"/>
      <path d="M474.964,392.174,63.283,380.908c-8.094-.221-16.385-.414-24.063,2.162S24.48,391.6,22.926,399.55c-1.471,7.514,2.286,15.3,7.87,20.539s12.777,8.369,19.894,11.187c69.369,27.475,145.081,34.5,219.672,36.177q71.835,1.617,143.624-3.029c27.5-1.782,55.179-4.294,81.557-12.254,10.039-3.027,20.759-7.644,25.282-17.105,6.253-13.081-3.173-29.313-16.213-35.655S476.34,393.928,474.964,392.174Z" fill="#faf1ef"/>
      <path d="M505.7,394.856a1.466,1.466,0,0,1-.912-2.615,124.58,124.58,0,0,0,33.071-40.106,1.466,1.466,0,0,1,2.6,1.348,127.568,127.568,0,0,1-33.854,41.056A1.46,1.46,0,0,1,505.7,394.856Z" fill="#917b0c"/>
      <path d="M480.99,431.939s-93.67-9.228-81.9,1.384,96.669,10.613,93.669,4.615S480.99,431.939,480.99,431.939Z" fill="#e2d3d0"/>
    </g>
    <path d="M269.131,147.228a44.434,44.434,0,0,0-40.06-1.261c-3.633,1.734-7.281,4.3-8.37,8.18-1.508,5.367,2.507,10.746,6.987,14.063,8.289,6.138,18.714,8.663,28.964,9.83,17.513,1.994,36.015.222,51.245-8.653,4.271-2.489,8.589-6.1,9.051-11.022.562-5.952-4.744-10.81-10.072-13.517C293.469,138.04,276.656,138.436,269.131,147.228Z" fill="#dae2ef"/>
    <path d="M484.99,403.946c6.8,1.715-104.59,36.3-156.27,35.684S102.314,427.94,77.7,413.175,171.4,404.4,171.4,404.4,469.822,400.123,484.99,403.946Z" fill="#e2d3d0"/>
    <path d="M321.341,232.668c-.933-4.769,1.671-9.738,5.173-12.251s7.718-3.087,11.791-3.419a132.654,132.654,0,0,1,17.334-.285,11.445,11.445,0,0,1,4.978,1.041c3.412,1.831,5,6.471,6.278,10.688.607,2,1.125,4.545-.155,6.029a4.253,4.253,0,0,1-2.028,1.143,86.389,86.389,0,0,1-36.759,3.921,13.585,13.585,0,0,1-5.169-1.344C321.174,237.306,319.751,235.69,321.341,232.668Z" fill="#d38d2f"/>
    <path d="M331.689,229.087a1.464,1.464,0,0,1-1.461-1.4l-.264-5.618a1.464,1.464,0,0,1,1.394-1.533,1.527,1.527,0,0,1,1.534,1.4l.263,5.618a1.464,1.464,0,0,1-1.395,1.533Z" fill="#5f4b4d"/>
    <path d="M329.055,223.686a1.466,1.466,0,0,1-.118-2.927l6.049-.494a1.466,1.466,0,0,1,.237,2.923l-6.049.493C329.133,223.684,329.092,223.686,329.055,223.686Z" fill="#5f4b4d"/>
    <path d="M343,231.027a1.465,1.465,0,0,1-1.447-1.24,27.44,27.44,0,0,0-1.333-5.172,16.917,16.917,0,0,0-1.509,4.032,1.465,1.465,0,1,1-2.854-.664,19.9,19.9,0,0,1,3.45-7.391,1.468,1.468,0,0,1,2.494.244,30.291,30.291,0,0,1,2.649,8.5,1.469,1.469,0,0,1-1.224,1.675A1.592,1.592,0,0,1,343,231.027Z" fill="#5f4b4d"/>
    <path d="M346.772,230.517a1.465,1.465,0,0,1-1.422-1.82l.164-.632a1.467,1.467,0,0,1,1.4-1.1,30.86,30.86,0,0,0,3.9-4.389,1.467,1.467,0,0,1,2.368,1.731,34.029,34.029,0,0,1-5.46,5.863A1.465,1.465,0,0,1,346.772,230.517Z" fill="#5f4b4d"/>
    <path d="M352.587,230.489a1.456,1.456,0,0,1-.818-.251,20.527,20.527,0,0,1-6.153-6.541,1.467,1.467,0,0,1,2.527-1.489,17.532,17.532,0,0,0,5.267,5.6,1.466,1.466,0,0,1-.823,2.681Z" fill="#5f4b4d"/>
    <path d="M357.479,230.557a1.443,1.443,0,0,1-.438-.067,2.275,2.275,0,0,1-1.5-2.38,61.136,61.136,0,0,1,.163-6.2,1.431,1.431,0,0,1,1.576-1.348,1.466,1.466,0,0,1,1.348,1.575,58.176,58.176,0,0,0-.158,5.877,1.466,1.466,0,0,1-.99,2.547Z" fill="#5f4b4d"/>
    <path d="M119.108,386.851c2.059,8.155.8,17.492,5.721,24.312,3.062,4.246,8.006,6.686,12.9,8.549a94.939,94.939,0,0,0,23.868,5.7c4.836.513,9.794.642,14.49-.629a20.271,20.271,0,0,0,12.383-9.486,49.306,49.306,0,0,0,7.891-18.376c.365-1.794.6-3.756-.255-5.369-1.206-2.256-4.035-2.977-6.551-3.431a236.051,236.051,0,0,0-48.219-3.6A90.586,90.586,0,0,0,119.108,386.851Z" fill="#5f4b4d"/>
    <path d="M189.551,388.125a231.723,231.723,0,0,0-37.789-3.627,75.149,75.149,0,0,0-2.04,17.4c.2,7.181,2.309,14.559,7.226,19.8a22.08,22.08,0,0,0,4.65,3.722c4.835.511,9.793.638,14.485-.631a20.271,20.271,0,0,0,12.383-9.486,49.306,49.306,0,0,0,7.891-18.376c.365-1.794.6-3.756-.255-5.369C194.9,389.3,192.067,388.579,189.551,388.125Z" fill="#35292b"/>
    <path d="M187.107,409.311a37.609,37.609,0,0,0,5.711-1.63,49.344,49.344,0,0,0,3.539-10.756c.365-1.794.6-3.756-.255-5.369-1.206-2.256-4.035-2.977-6.551-3.431a236.051,236.051,0,0,0-48.219-3.6,90.586,90.586,0,0,0-22.224,2.327c1.059,4.2,1.246,8.715,1.843,13.039A101.305,101.305,0,0,0,187.107,409.311Z" fill="#35292b"/>
    <path d="M196.1,391.556c-1.206-2.256-4.035-2.977-6.551-3.431-2.761-.5-5.536-.929-8.325-1.326q-.729-.105-1.459-.208c-2.851-.386-5.716-.73-8.618-1.012l-.209-.02c-6.215-.6-12.571-.954-19.161-1.059l-.017,0a75.149,75.149,0,0,0-2.04,17.4,37.437,37.437,0,0,0,1.05,7.908,99.472,99.472,0,0,0,36.335-.5,37.609,37.609,0,0,0,5.711-1.63q.581-1.26,1.089-2.55c.014-.034.027-.069.041-.1.313-.793.6-1.6.871-2.406.035-.106.074-.211.109-.318.241-.736.457-1.479.664-2.225.046-.164.1-.325.138-.491.234-.881.446-1.768.627-2.662C196.722,395.131,196.962,393.169,196.1,391.556Z" fill="#21191b"/>
    <path d="M271.14,390.278c.646,4.813.013,9.7.262,14.549s1.581,9.982,5.262,13.15c3.174,2.73,7.539,3.539,11.7,4.026a118.969,118.969,0,0,0,17.591.742c3.921-.127,8.128-.557,11.127-3.09,3.614-3.051,4.438-8.238,4.669-12.963.247-5.108.052-10.378-1.954-15.085s-6.125-8.774-12.933-10.252C294.289,378.818,280.565,382.949,271.14,390.278Z" fill="#3f3133"/>
    <path d="M315.744,402.235c2.187-.827,4.587-2.282,5.749-4.147a25.306,25.306,0,0,0-1.5-5.967,13.879,13.879,0,0,0-4.968-1.654c-12.779-2.214-25.7-4.41-38.636-3.673a44.328,44.328,0,0,0-5.246,3.484c.646,4.813.013,9.7.262,14.549.023.449.067.9.109,1.356C286.558,408.028,301.674,407.543,315.744,402.235Z" fill="#2b2022"/>
    <g>
      <path d="M303.145,398.459c-.077,9.391,5.1,18.408,12.581,24.081s17.034,8.218,26.427,8.289c13.037.1,26.652-4.893,34.377-15.39,7.422-10.082,8.418-23.322,9.985-35.742,1.006-7.953,2.355-15.947,1.746-23.94s-3.438-16.169-9.48-21.439c-6.161-5.376-15.045-7.024-23.052-5.372s-15.169,6.311-20.908,12.135-10.181,12.792-14.247,19.886a304.648,304.648,0,0,0-15.411,31.055C303.774,395.249,302.414,398.858,303.145,398.459Z" fill="#5f4b4d"/>
      <path d="M317.876,366.186l-.3.172c-4.539,8.353-8.656,16.932-12.414,25.664-1.389,3.227-2.749,6.836-2.018,6.437a26.458,26.458,0,0,0,.872,6.887c6.57-.03,17.781-.823,26.779-5.245,13.612-6.691,11.074-42.913,11.074-42.913Z" fill="#493a3c"/>
    </g>
    <path d="M354.472,343.907c8.4-1.359,16.867,4.232,20.769,11.8s3.935,16.6,2.242,24.944c-1.53,7.538-4.46,14.915-9.4,20.811-2.953,3.533-7.333,6.684-11.827,5.673-3.7-.829-6.233-4.222-7.911-7.618-3.636-7.363-4.807-15.769-4.412-23.973s2.294-16.264,4.532-24.164C349.375,348.178,351.033,344.462,354.472,343.907Z" fill="#35292b"/>
    <path d="M483.967,390.732l24.923-5.375s11.239-40.56-3.909-48.868-25.9,4.4-25.9,4.4Z" fill="#915c1c"/>
    <path d="M452.955,384.793a112.308,112.308,0,0,0-3.04,20.544c-.1,1.826-.314,3.809.569,5.41,6.12,11.1,19.817,12.838,25.34,13.051,7.121.277,11.163-3.721,15.064-7.634,3.857-3.864,5.118-9.541,6.178-14.9,2.975-15.047,5.7-30.347,4.55-45.644-.312-4.141-.97-8.43-3.316-11.86-3.875-5.676-11.813-7.638-18.422-5.749-7.282,2.08-12.889,7.98-16.895,14.409C456.291,363.171,455.1,376.006,452.955,384.793Z" fill="#5f4b4d"/>
    <path d="M488.253,354.936a10.992,10.992,0,0,0-6.193,4.181,26.682,26.682,0,0,0-3.528,6.733c-3.773,9.636-5.958,20.01-5.312,30.338.183,2.957.9,6.363,3.552,7.7,2.328,1.172,5.191.185,7.305-1.339a20.832,20.832,0,0,0,6.75-9.048,52.144,52.144,0,0,0,2.873-11.043c1.229-7.029,2.108-14.241.936-21.278a10.215,10.215,0,0,0-1.762-4.74A4.547,4.547,0,0,0,488.253,354.936Z" fill="#35292b"/>
    <path d="M198.257,279.915a37.59,37.59,0,0,0-18.284-1.419c-2.2.377-4.489,1.022-6.022,2.647-1.929,2.052-2.187,5.118-2.339,7.935-.1,1.738-.142,3.648.927,5.026a6.339,6.339,0,0,0,3.833,1.972,21.781,21.781,0,0,0,19.82-6.135,11.489,11.489,0,0,0,2.858-4.512A6.491,6.491,0,0,0,198.257,279.915Z" fill="#dd9536"/>
    <path d="M475.371,300.575c-3.456-23.046-21.526-41.867-42.5-52.028s-44.656-12.989-67.887-14.826c-32.008-2.529-64.635-3.4-95.8,4.324s-61.055,24.985-78.6,53.741A420.727,420.727,0,0,0,131.6,305.1c-6.54,1.98-13.177,4.193-18.578,8.384-7.53,5.842-11.867,14.96-14.239,24.193-2.683,10.43-3.119,21.757.877,31.761s12.976,18.378,23.652,19.834c60.172,9.032,121.332,8.6,182.16,7.129,7.817-.19,16.118-.544,22.585-4.937,7.139-4.851,10.5-13.621,12.244-22.073s2.347-17.263,5.814-25.168,10.829-14.961,19.458-14.693c7.81.242,14.413,6.515,17.4,13.733s3.078,15.268,3,23.082-1.2,29.192-1.2,29.192,40.658-.356,59.371-.163c4.739.049,9.888.28,13.927-2.2,6.442-3.952,6.606-9.831,8.355-17.184a106.413,106.413,0,0,1,9.464-25.146,30,30,0,0,1,5.986-8.413,12.45,12.45,0,0,1,9.438-3.512c4.646.5,8.335,4.449,9.953,8.835s1.557,9.183,1.48,13.857q-.154,9.067-.306,18.139c-.051,3.1.519,7.062,3.524,7.813,2.429.607,4.641-1.44,6.311-3.305,5.325-5.948,10.815-12.186,12.97-19.871s-.129-17.25-7.236-20.89c3.81-1.4,6.073-5.607,6.156-9.665s-1.643-7.949-3.805-11.384C511.072,307.7,492.517,299.4,475.371,300.575Z" fill="#f7b048"/>
    <path d="M416.346,358.722c-1.12-.516-1.811-.863-1.989-1.448a2.41,2.41,0,0,1,.842-2.015,13.37,13.37,0,0,1,1.078-.967,12.257,12.257,0,0,0,1.775-1.711c2.045-2.551,2.01-6.133,1.986-8.5l-.447-46.229a1.406,1.406,0,0,0-1.479-1.452,1.465,1.465,0,0,0-1.453,1.481l.447,46.23c.026,2.584-.058,5.038-1.341,6.637a9.711,9.711,0,0,1-1.372,1.3,16.935,16.935,0,0,0-1.3,1.178,5.072,5.072,0,0,0-1.539,4.9c.57,1.88,2.23,2.647,3.565,3.265a6.276,6.276,0,0,1,1.9,1.134c.847.907.818,2.591.718,4.239l-1.764,28.587,2.94-.009,1.752-28.4c.133-2.183.137-4.661-1.5-6.42A8.6,8.6,0,0,0,416.346,358.722Z" fill="#d38d2f"/>
    <path d="M460.652,358.722c-1.118-.516-1.81-.863-1.989-1.448a2.415,2.415,0,0,1,.844-2.015,13.528,13.528,0,0,1,1.077-.967,12.412,12.412,0,0,0,1.775-1.711c2.046-2.551,2.011-6.133,1.985-8.5l-.447-46.229a1.466,1.466,0,0,0-1.466-1.452h-.013a1.467,1.467,0,0,0-1.453,1.481l.449,46.23c.025,2.584-.059,5.038-1.341,6.637a9.731,9.731,0,0,1-1.374,1.3,17.316,17.316,0,0,0-1.305,1.178,5.079,5.079,0,0,0-1.539,4.9c.571,1.88,2.232,2.647,3.566,3.265a6.27,6.27,0,0,1,1.9,1.134c.849.907.819,2.591.718,4.239L460.522,391.3a13.487,13.487,0,0,0,3.237-4.828l1.206-19.531c.134-2.183.138-4.661-1.5-6.42A8.605,8.605,0,0,0,460.652,358.722Z" fill="#d38d2f"/>
    <path d="M474.961,298.427c-3.313-17.294-14.814-32.065-29.427-42.386-1.3-.486-2.6-.952-3.917-1.369-15.218-4.831-31.391-5.543-48.361-5.811a142.2,142.2,0,0,0-2.749,33.292c.116,3.221.4,6.617,2.232,9.269,3.076,4.452,9.234,5.227,14.637,5.549q31.868,1.9,63.816,1.754A19.916,19.916,0,0,0,474.961,298.427Z" fill="#c4dff2"/>
    <path d="M425.183,297.859c1.5.062,3,.1,4.5.159.5-8.925.763-17.9-.635-26.675-1.355-8.509-4.47-16.907-9.875-21.158-1.043-.112-2.094-.21-3.146-.3A198.913,198.913,0,0,1,425.183,297.859Z" fill="#adcadb"/>
    <path d="M393.256,248.861c-.731,3.6-1.308,7.228-1.756,10.873,19.238,14.593,39.468,27.951,60.988,38.881,6.234.09,12.469.138,18.7.11.22,0,.441-.01.662-.013a701.472,701.472,0,0,0-66.11-49.513C401.633,249.021,397.469,248.928,393.256,248.861Z" fill="#e5f3f9"/>
    <path d="M197.626,291.744c60.639,16.817,124.965,14.231,185.838-1.538C318.512,285.512,253.315,284.935,197.626,291.744Z" fill="#d38d2f"/>
    <path d="M199.068,291.453l184.31,1.315s1.263-44.68-.745-43.8c-22.124-.677-44.1-3.784-66.206-4.988s-44.661-.44-65.712,6.4S210.1,270.711,199.068,291.453Z" fill="#c4dff2"/>
    <path d="M316.8,292.293l43.177.308c-.886-5.392-3.324-14-10.014-18.69a11.942,11.942,0,1,0-15.756-2.468C324.206,274.678,318.809,286.762,316.8,292.293Z" fill="#83a2b2"/>
    <path d="M319.2,244.159c-.925-.057-1.846-.128-2.769-.178-4.515-.245-9.047-.4-13.582-.45q-6.707,23.922-11.261,48.379c.955.092,1.91.151,2.867.223l18.36.131A351.522,351.522,0,0,1,319.2,244.159Z" fill="#adcadb"/>
    <path d="M310.2,243.705a776.049,776.049,0,0,0,73.361,41.087c.079-3.826.155-8.609.19-13.437-8.359-3.639-15.934-8.983-23.352-14.336-5.193-3.747-10.417-7.536-15.911-10.811-9.348-.864-18.693-1.716-28.064-2.227C314.355,243.868,312.28,243.78,310.2,243.705Z" fill="#e5f3f9"/>
    <path d="M321.483,272.733c-4.991-3.753-9.984-7.506-16.649-12.389-7.733-5.365-15.453-10.731-22.9-16.064a150.882,150.882,0,0,0-21.347,3.362,359.242,359.242,0,0,0,56.165,42.709q1.623,1,3.277,1.964l33.487.24C343.13,286.719,332.685,280.285,321.483,272.733Z" fill="#e5f3f9"/>
    <path d="M318,356.338h-.026l-205.746-3.392a1.466,1.466,0,0,1,.026-2.932h.023l205.748,3.392a1.466,1.466,0,0,1-.025,2.932Z" fill="#d38d2f"/>
    <path d="M143.094,317.335a86.086,86.086,0,0,1,.686,14.568,3.876,3.876,0,0,1-1.026,3,3.754,3.754,0,0,1-1.728.623,45.138,45.138,0,0,1-18.479-.605,15.6,15.6,0,0,1-5.833-2.463,6.2,6.2,0,0,1-.215-10.374,16.112,16.112,0,0,1,5.192-2.576A49.535,49.535,0,0,1,143.094,317.335Z" fill="#f4d34a"/>
    <path d="M265.11,317.882a28.7,28.7,0,0,0-2.094,8.023,9.658,9.658,0,0,0,2.585,7.63c2.349,2.225,5.847,2.593,9.071,2.847,11.894.936,23.851,1.872,35.74.863,3.306-.278,6.693-.74,9.587-2.364s5.214-4.665,5.08-7.979a9.116,9.116,0,0,0-4.172-6.831,21.789,21.789,0,0,0-7.69-2.978C297.731,313.571,281.6,315.048,265.11,317.882Z" fill="#f4d34a"/>
    <path d="M248.655,321.193c-2.277-5.025-8.811-6.094-14.312-6.484-24.59-1.739-49.4-3.472-73.038-.227a4.192,4.192,0,0,0-3.339,2.694c-1.748,4.649-2.886,9.8-.194,13.777,2.5,3.7,7.374,4.829,11.794,5.476,19.815,2.9,39.979,2.051,59.96.67,4.893-.339,10.006-.778,14.172-3.374S250.674,325.663,248.655,321.193Z" fill="#d38d2f"/>
    <path d="M118.03,364.257a1193.707,1193.707,0,0,1,132.942,2.615c7.461.565,15,1.217,22.088,3.636,1.534.523,3.327,1.558,3.187,3.176-.13,1.468-1.776,2.23-3.181,2.672-26.707,8.4-55.4,6.654-83.337,4.826-20.167-1.319-40.431-2.651-60.152-7.08a23.315,23.315,0,0,1-7.554-2.7A8.03,8.03,0,0,1,118.03,364.257Z" fill="#d38d2f"/>
    <path d="M398.457,292.079a19.6,19.6,0,0,1-8-1.689,1.466,1.466,0,1,1,1.2-2.675,16.723,16.723,0,0,0,11.3.809,1.465,1.465,0,1,1,.809,2.817A19.253,19.253,0,0,1,398.457,292.079Z" fill="#d38d2f"/>
    <path d="M342.559,227.578h-.023l-4.248-.066a1.466,1.466,0,0,1-1.443-1.489,1.49,1.49,0,0,1,1.489-1.443l4.248.065a1.467,1.467,0,0,1-.023,2.933Z" fill="#5f4b4d"/>
    <path d="M294.864,275.744q8.942,6.454,18.283,12.326c.5-6.7,1.151-13.4,2.036-20.063-3.1-2.319-6.433-4.793-10.349-7.663-1.827-1.267-3.639-2.534-5.462-3.8Q296.944,266.1,294.864,275.744Z" fill="#cce2ea"/>
    <path d="M423.905,282.284c2.036,1.286,4.08,2.562,6.14,3.809a85.818,85.818,0,0,0-1-16.416,51.015,51.015,0,0,0-1.172-5.215q-4.584-3.288-9.219-6.5A172.972,172.972,0,0,1,423.905,282.284Z" fill="#cce2ea"/>
    <path d="M403.746,277.379q-.246,5.158-.486,10.314a2.6,2.6,0,0,0,3.171,3.209q7.815.349,15.637.331c2.03,0,4.21-.076,5.844-1.277,1.935-1.423,2.546-4,3.023-6.355.355-1.756.627-3.827-.618-5.119a5.477,5.477,0,0,0-3.256-1.267C419.015,276.022,410.832,275.769,403.746,277.379Z" fill="#dd9536"/>
    <path d="M455,263.812a160.382,160.382,0,0,1-9.557,34.667c8.58.182,17.162.285,25.745.246a19.916,19.916,0,0,0,3.769-.3C472.405,285.09,464.971,273.264,455,263.812Z" fill="#adcadb"/>
    <path d="M319.2,244.156c-.925-.057-1.846-.125-2.769-.175-2.072-.113-4.147-.2-6.224-.276q4.05,2.566,8.132,5.075C318.626,247.24,318.883,245.691,319.2,244.156Z" fill="#cce2ea"/>
    <path d="M393.105,326.124a14.576,14.576,0,0,0-1.848,5.9,5.532,5.532,0,0,0,3.216,5.19,12.219,12.219,0,0,0,4.8.682l73.718.654-.084-12.849C445.474,325.284,418.041,324.871,393.105,326.124Z" fill="#c4dff2"/>
    <g clip-path="url(#a)">
      <g>
        <rect x="390.307" y="331.683" width="6.961" height="6.621" fill="#adcadb"/>
        <rect x="397.353" y="325.656" width="6.96" height="6.622" fill="#adcadb"/>
        <rect x="404.399" y="331.683" width="6.963" height="6.621" fill="#adcadb"/>
        <rect x="411.445" y="325.656" width="6.96" height="6.622" fill="#adcadb"/>
        <rect x="418.491" y="331.683" width="6.963" height="6.621" fill="#adcadb"/>
        <rect x="425.537" y="325.656" width="6.96" height="6.622" fill="#adcadb"/>
        <rect x="432.582" y="331.683" width="6.965" height="6.621" fill="#adcadb"/>
        <rect x="439.629" y="325.656" width="6.962" height="6.622" fill="#adcadb"/>
        <rect x="446.506" y="331.683" width="6.96" height="6.621" fill="#adcadb"/>
        <rect x="453.549" y="325.656" width="6.965" height="6.622" fill="#adcadb"/>
        <rect x="460.596" y="331.683" width="6.963" height="6.621" fill="#adcadb"/>
        <rect x="467.644" y="325.656" width="6.961" height="6.622" fill="#adcadb"/>
      </g>
      <path d="M461.233,325.527l.126,12.917,2.931.026-.125-12.9Z" fill="#8aa1ad"/>
    </g>
    <path d="M447.481,314.66a2.77,2.77,0,0,1-2.769,2.77h-7.979a2.771,2.771,0,0,1-2.771-2.77h0a2.77,2.77,0,0,1,2.771-2.769h7.979a2.769,2.769,0,0,1,2.769,2.769Z" fill="#89510e"/>
    <path d="M489.507,314.66a2.77,2.77,0,0,1-2.77,2.77h-7.978a2.77,2.77,0,0,1-2.77-2.77h0a2.77,2.77,0,0,1,2.77-2.769h7.978a2.77,2.77,0,0,1,2.77,2.769Z" fill="#89510e"/>
    <g clip-path="url(#b)">
      <g>
        <path d="M227.207,387.471h-.063a1.465,1.465,0,0,1-1.4-1.526l1.04-24.882a1.466,1.466,0,1,1,2.929.122l-1.042,24.882A1.464,1.464,0,0,1,227.207,387.471Z" fill="#895211"/>
        <path d="M244.025,386.871a1.439,1.439,0,0,1-.418-.061,1.465,1.465,0,0,1-.988-1.823,84.7,84.7,0,0,0,3.357-20.34,1.491,1.491,0,0,1,1.529-1.4,1.464,1.464,0,0,1,1.4,1.53,87.752,87.752,0,0,1-3.473,21.045A1.466,1.466,0,0,1,244.025,386.871Z" fill="#895211"/>
        <path d="M158.5,383.562a1.466,1.466,0,0,1-1.462-1.405L156,357.276a1.465,1.465,0,1,1,2.928-.122l1.041,24.881a1.465,1.465,0,0,1-1.4,1.526Z" fill="#895211"/>
        <path d="M141.683,382.962a1.468,1.468,0,0,1-1.406-1.048,87.76,87.76,0,0,1-3.473-21.045,1.466,1.466,0,0,1,1.4-1.531,1.5,1.5,0,0,1,1.528,1.4,84.849,84.849,0,0,0,3.356,20.341,1.465,1.465,0,0,1-1.4,1.884Z" fill="#895211"/>
      </g>
    </g>
    <g clip-path="url(#c)">
      <g>
        <path d="M153.271,323.965a1.465,1.465,0,0,1,.011-2.925,562.687,562.687,0,0,1,98.1,2.579,1.469,1.469,0,0,1,1.291,1.623,1.485,1.485,0,0,1-1.625,1.29,559.649,559.649,0,0,0-97.585-2.565A1.506,1.506,0,0,1,153.271,323.965Z" fill="#895211"/>
        <path d="M155.7,331.767a1.466,1.466,0,0,1,.061-2.928,804.435,804.435,0,0,1,92.583,3.04,1.466,1.466,0,0,1,1.327,1.593,1.5,1.5,0,0,1-1.592,1.327,799.9,799.9,0,0,0-92.243-3.029C155.791,331.771,155.746,331.77,155.7,331.767Z" fill="#895211"/>
        <g>
          <path d="M168.974,339.848a1.469,1.469,0,0,1-1.35-1.236,95.033,95.033,0,0,1-.128-27.776,1.444,1.444,0,0,1,1.661-1.242,1.469,1.469,0,0,1,1.243,1.66,92.118,92.118,0,0,0,.12,26.906,1.463,1.463,0,0,1-1.221,1.675A1.549,1.549,0,0,1,168.974,339.848Z" fill="#895211"/>
          <path d="M179.829,342.024a1.467,1.467,0,0,1-1.338-1.16,75.212,75.212,0,0,1,.3-31.9,1.466,1.466,0,0,1,2.86.648,72.276,72.276,0,0,0-.289,30.65A1.465,1.465,0,0,1,180.227,342,1.5,1.5,0,0,1,179.829,342.024Z" fill="#895211"/>
          <path d="M212.169,341.208a1.267,1.267,0,0,1-.172-.023,1.466,1.466,0,0,1-1.176-1.708,155.278,155.278,0,0,0,2.6-29.081,1.465,1.465,0,1,1,2.93-.016,158.271,158.271,0,0,1-2.642,29.633A1.47,1.47,0,0,1,212.169,341.208Z" fill="#895211"/>
          <path d="M225.425,342.322a1.619,1.619,0,0,1-.244-.037,1.464,1.464,0,0,1-1.086-1.763,137.871,137.871,0,0,0,3.65-30.612,1.468,1.468,0,0,1,2.936.022,140.787,140.787,0,0,1-3.736,31.262A1.467,1.467,0,0,1,225.425,342.322Z" fill="#895211"/>
        </g>
      </g>
    </g>
    <path d="M461.807,216.081a11.911,11.911,0,0,0,1.1-5.5,14.334,14.334,0,1,0-28.667,0,10.716,10.716,0,0,0,.656,4.294,71.176,71.176,0,0,0,12.048,18.185S457.854,223.692,461.807,216.081Z" fill="#bb5330"/>
    <path d="M453.415,214.529A5.416,5.416,0,1,1,448,209.113,5.414,5.414,0,0,1,453.415,214.529Z" fill="#fff"/>
    <path d="M343.463,251.955a11.925,11.925,0,0,0-10.213,5.775q10.291,6.03,20.759,11.748a11.921,11.921,0,0,0-10.546-17.523Z" fill="#99bac6"/>
    <path d="M326.623,276.151c-4.63,4.417-7.609,10.508-9.227,14.584.874.532,1.751,1.063,2.636,1.58l26.643.191,6.844.049C344.737,287.621,335.909,282.252,326.623,276.151Z" fill="#acc9d1"/>
    <path d="M367.85,292.657a17.383,17.383,0,0,0-34.017-.243Z" fill="#5f4b4d"/>
    <path d="M416.925,325.39l.122,12.661,2.933.026-.124-12.722C418.879,325.366,417.9,325.376,416.925,325.39Z" fill="#8aa1ad"/>
    <g>
      <path d="M496.252,350.314a.232.232,0,0,1-.231-.224,11.971,11.971,0,0,1,2.473-7.6,6.145,6.145,0,0,1,3.291-2.388,5.6,5.6,0,0,1,4.981,1.551,16.2,16.2,0,0,1,3.043,4.28.23.23,0,1,1-.4.225A15.873,15.873,0,0,0,506.456,342a5.157,5.157,0,0,0-4.561-1.445,5.711,5.711,0,0,0-3.037,2.223,11.494,11.494,0,0,0-2.375,7.3.233.233,0,0,1-.224.238Z"/>
      <polygon points="527.858 386.09 518.01 346.364 486.286 349.481 488.091 387.379 496.47 392.279 527.858 386.09" fill="#db5f3f"/>
      <path d="M488.091,387.379l-1.57-32.981a50.478,50.478,0,0,0,11.144,12.839c6.822,5.7,14.735,9.909,22.672,13.908a29.152,29.152,0,0,1,7.416,4.7c.02.02.039.042.058.061l.047.182-31.388,6.189Z" fill="#cc5037"/>
      <path d="M488.091,387.379l-1.805-37.9,3.3-.339c1.619,14.132,8.014,28.734,6.886,43.137h0Z" fill="#a53b26"/>
      <path d="M514.976,344.633q1.516.867,3.034,1.731l-28.115,5.7-3.609-2.9Z" fill="#a53b26"/>
      <path d="M448.749,420.812q.509,6.036,1.017,12.072-11.159,1.067-22.315,2.135a22.244,22.244,0,0,1,8.525-9.169A39.271,39.271,0,0,1,448.749,420.812Z" fill="#db5f3f"/>
      <path d="M448.749,420.812q.219,2.577.436,5.156a8.327,8.327,0,0,1-6.222-2.577,5.871,5.871,0,0,1-.559-.707A50.139,50.139,0,0,1,448.749,420.812Z" fill="#fccead"/>
      <g>
        <path d="M480.2,420.892q.081,1.627.158,3.258a16.136,16.136,0,0,1,4.47,8.9,2.67,2.67,0,0,1-.25,1.957,2.928,2.928,0,0,1-2.177.881q-4.772.492-9.544.99l1.067-13.664c.105-1.315.325-2.834,1.456-3.515C476.573,418.98,478.1,419.6,480.2,420.892Z" fill="#db5f3f"/>
        <path d="M480.344,423.948a9.8,9.8,0,0,1-4.847.148,4.315,4.315,0,0,1-1.593-.677l.015-.2c.105-1.315.207-3.217.919-3.6,1.23-.665,3.26-.011,5.357,1.277Q480.27,422.418,480.344,423.948Z" fill="#fccead"/>
        <path d="M492.765,324.257a387.844,387.844,0,0,1-6.784,98.069l-11.519-1.434s-.543-80.3-3.426-83.519c-3.507,26.248-9.678,51.884-15.047,77.816-.579,2.8.2,6.525-2.476,7.535l-14.047-.467L458.33,320.62Z" fill="#d38d2f"/>
      </g>
      <path d="M458.33,320.62l34.435,3.637c.105,1.791.147,3.584.227,5.376a34.524,34.524,0,0,1-17.253,2.863,39.668,39.668,0,0,1-18.376-6.67Z" fill="#af6a17"/>
      <path d="M455.1,422.724l-2.118-.018a58.135,58.135,0,0,1,.667-10.93c3.088-23.556,16.394-68.787,16.55-68.53-3.374,24.271-8.308,48.329-13.277,72.324C456.342,418.372,455.1,422.724,455.1,422.724Z" fill="#af6a17"/>
      <path d="M472.53,347.152c4.328,21.335,10.144,42.534,9.169,64.251-.155,3.461-.655,7.253-2.423,10.089l-5.372-.627C473.449,419.2,472.5,348.061,472.53,347.152Z" fill="#af6a17"/>
      <path d="M442.6,244.184a45.318,45.318,0,0,0,1.081,12.3c.338,1.44,3.506.45,4.987.445a1.277,1.277,0,0,0,1.562-1.693c-.529-4.354-.583-9.03-2.015-11.747C447.491,242.122,442.689,242.332,442.6,244.184Z" fill="#b74730"/>
      <path d="M448.924,257.151q-.282,6.8-.566,13.6c1.861-.453,3.428-.873,4.994-1.293a1.15,1.15,0,0,1,.8-.019,1.174,1.174,0,0,1,.5.8q.967,3.433,1.936,6.865a66.469,66.469,0,0,1-8.469,7.2c-1.139.828-2.439,1.671-3.839,1.507a3.9,3.9,0,0,1-2.949-2.5,9.955,9.955,0,0,1-.524-4c.16-8.167,2.357-16.144,4.86-24.191,0,0-.784-1.374-1.713-2.83a4.679,4.679,0,0,1-.451-3.436,2.772,2.772,0,0,1,2.9-2.234c.83.078,1.681,1.123,1.886,2.72.276,2.158.676,2.076,1.165,4.2A4.2,4.2,0,0,1,448.924,257.151Z" fill="#fccead"/>
      <path d="M451.938,281.326a24.363,24.363,0,0,1-1.309-11.144c.938-.243,1.839-.482,2.723-.719a1.15,1.15,0,0,1,.8-.019,1.174,1.174,0,0,1,.5.8q.967,3.433,1.936,6.865A58.459,58.459,0,0,1,451.938,281.326Z" fill="#ec9d73"/>
      <path d="M446.245,282.762a7.272,7.272,0,0,1,.5,2.423,4.124,4.124,0,0,1-2.474.634,3.9,3.9,0,0,1-2.949-2.5,9.955,9.955,0,0,1-.524-4c.006-.315.035-.625.046-.94.066.013.134.018.2.033A7.546,7.546,0,0,1,446.245,282.762Z" fill="#ec9d73"/>
      <path d="M499.824,353.776a.231.231,0,0,1-.231-.229,39.878,39.878,0,0,1,1.02-9.258c.33-1.427.895-3.159,2.35-3.885,1.319-.66,3.082-.3,4.962,1a18.27,18.27,0,0,1,5.868,6.762.231.231,0,0,1-.413.207,17.8,17.8,0,0,0-5.718-6.59c-1-.7-2.924-1.753-4.494-.971-1.281.639-1.8,2.247-2.106,3.576a39.446,39.446,0,0,0-1.008,9.151.23.23,0,0,1-.228.232Z"/>
      <path d="M502.015,282.551c-.566,8.141-1.131,16.282-2.007,24.06a147.25,147.25,0,0,1,6.227,31.488,19.9,19.9,0,0,1,2.685,3.054,6.643,6.643,0,0,1,1.22,3.816c-.037,1.089-.639,2.323-1.72,2.462a2.921,2.921,0,0,1-2.055-.848,28.481,28.481,0,0,1-4.808-4.833,6.836,6.836,0,0,1-.685,3.312c-.116.24-.294.5-.561.513-.378.016-.551-.46-.609-.834a36.451,36.451,0,0,1-.377-9.5,195.384,195.384,0,0,1-7.9-51.1C494.841,283.585,498.256,283.032,502.015,282.551Z" fill="#fccead"/>
      <path d="M502.015,282.551q-.293,4.23-.6,8.438a17.589,17.589,0,0,1-9.461,3.643c-.261-3.493-.453-6.993-.524-10.5C494.841,283.585,498.256,283.032,502.015,282.551Z" fill="#ec9d73"/>
      <path d="M469.268,238.237a11.691,11.691,0,0,1,1.143-13.585,13.419,13.419,0,0,1,13.313-3.919,15.788,15.788,0,0,1,10.385,9.517c1.319,3.371,1.534,7.058,2.354,10.584s2.471,7.151,5.639,8.9c.955.527,2.012.859,2.953,1.41a3.806,3.806,0,0,1,1.988,2.471c.48,2.821-3.672,4.62-3.651,7.483.019,2.726,3.723,4.1,4.247,6.778.363,1.854-1.034,3.7-2.762,4.456a11.3,11.3,0,0,1-5.581.506,106.6,106.6,0,0,1-24.226-5.582c-4.874-1.636-10.138-3.847-12.358-8.484a10.437,10.437,0,0,1,3.648-12.836c.941-.6,1.981-1.054,2.895-1.7a4.221,4.221,0,0,0,1.881-2.676C471.3,240.449,470.158,239.61,469.268,238.237Z" fill="#2d202a"/>
      <path d="M462.712,258.771a10.4,10.4,0,0,1,.706-9.737c.555.149,1.1.326,1.623.5a61.634,61.634,0,0,0,18.937,3.216,30.5,30.5,0,0,0,10.425-1.4,16.931,16.931,0,0,0,5.616-3.234,8.793,8.793,0,0,0,2.083,1.615c.955.527,2.012.859,2.953,1.41a3.806,3.806,0,0,1,1.988,2.471c.48,2.821-3.672,4.62-3.651,7.483.019,2.726,3.723,4.1,4.247,6.778.363,1.854-1.034,3.7-2.762,4.456a11.3,11.3,0,0,1-5.581.506,106.6,106.6,0,0,1-24.226-5.582C470.2,265.619,464.932,263.408,462.712,258.771Z" fill="#0d0a0b"/>
      <path d="M451.826,268.526c-.188-.144,2.922,11.195,5.734,16.562a22.444,22.444,0,0,0,4.754-6.074,289.087,289.087,0,0,0-6.349,46.491c13.733.574,26.738,1.27,39.744,1.965-1.313-14.043-2.2-28.055-3.092-42.065,3.7-.852,8.126-1.927,12.555-3-1.065-6.408-2.164-12.937-5.141-18.712s-8.188-10.777-14.712-11.393c-7.215.959-14.606,1.969-21.054,5.349A38.182,38.182,0,0,0,451.826,268.526Z" fill="#db5f3f"/>
      <path d="M489.911,272.209c2.563,3.489,2.944,16.9,3.063,18.761A35.659,35.659,0,0,1,489.911,272.209Z" fill="#bc452e"/>
      <path d="M485.319,252.3a16.309,16.309,0,0,1,9.326,4.355,41.067,41.067,0,0,1-9.461,10.312,23.192,23.192,0,0,1-13.218,4.78,11.835,11.835,0,0,1-5.487-1.089,6.83,6.83,0,0,1-3.6-4.133,9.105,9.105,0,0,1,.874-5.975,22.664,22.664,0,0,1,2.023-3.614C471.858,254.136,478.659,253.182,485.319,252.3Z" fill="#bc452e"/>
      <path d="M475.735,248.9c-1.031-.331-3.371.09-4.4-.243a2.713,2.713,0,0,1-1.251-.665,2.627,2.627,0,0,1-.474-1.678,51.274,51.274,0,0,1,.679-11.266,13.017,13.017,0,0,1,2.339-5.681,5.066,5.066,0,0,1,5.714-1.82,26.452,26.452,0,0,0-.4,5.646,8.9,8.9,0,0,0,1.947,5.221,6.058,6.058,0,0,0,5.1,2.078,3.152,3.152,0,0,1,2.4-.564,2.485,2.485,0,0,1,1.859,1.562,2.059,2.059,0,0,1-.662,2.28,2.911,2.911,0,0,1-2.533.23c-.209,2.85-.418,5.7-.812,8.779-2.231,2.538-4.565,5.153-7.664,6.5-1.163.5-2.679.75-3.566-.151a2.507,2.507,0,0,1-.432-2.513,7.41,7.41,0,0,1,1.417-2.258Z" fill="#fccead"/>
      <path d="M474.644,240.753h-.025l-1.851-.2a.376.376,0,0,1-.278-.137.368.368,0,0,1,.046-.469L474.079,238a.23.23,0,1,1,.361.286l-1.447,1.823,1.677.185a.231.231,0,0,1-.026.46Z"/>
      <path d="M473.554,244.087a.231.231,0,0,1-.026-.46,2.693,2.693,0,0,0,2.228-1.946.231.231,0,0,1,.447.115,3.13,3.13,0,0,1-2.623,2.29Z"/>
      <path d="M479.5,236.073a2.869,2.869,0,0,0-1.361-1.155,1.878,1.878,0,0,0-1.733.186c-.1.071-.2.181-.167.3.027.1.127.147.216.187A5.382,5.382,0,0,0,479.5,236.073Z" fill="#0d0a0b"/>
      <path d="M472.484,234.943a5.709,5.709,0,0,0-1.326-.57,1.933,1.933,0,0,0-1.406.14c-.213.12-.41.361-.327.591a.619.619,0,0,0,.5.314A3.662,3.662,0,0,0,472.484,234.943Z" fill="#0d0a0b"/>
      <path d="M486.505,242.162a1.957,1.957,0,0,1-.63-.1.231.231,0,1,1,.147-.437,1.58,1.58,0,0,0,1.518-.31.23.23,0,1,1,.308.343A2.02,2.02,0,0,1,486.505,242.162Z" fill="#ec9d73"/>
      <path d="M483.724,220.733a15.218,15.218,0,0,1,7.96,5.356,7.848,7.848,0,0,1-3.7,1.325,9.183,9.183,0,0,1-8.169-4.165,7.76,7.76,0,0,1-1.109-2.828A13.524,13.524,0,0,1,483.724,220.733Z" fill="#453641"/>
      <path d="M462.314,279.014a22.467,22.467,0,0,1-2.729,3.963c1.218-4.349,2.572-8.661,4.165-12.89a14.253,14.253,0,0,1-1.689,10.159C462.145,279.836,462.225,279.424,462.314,279.014Z" fill="#bc452e"/>
      <path d="M476.725,238.277a.929.929,0,1,0,.929-.928A.928.928,0,0,0,476.725,238.277Z" fill="#0d0a0b"/>
      <circle cx="471.404" cy="237.782" r="0.928" fill="#0d0a0b"/>
      <path d="M475.426,251.164l.309-2.263a3.5,3.5,0,0,0-.841-.121,10.282,10.282,0,0,0,2.725-1.448c.153-.114.364-.236.52-.127s.116.327.063.5A6.357,6.357,0,0,1,475.426,251.164Z" fill="#ec9d73"/>
    </g>
  </g>
</svg>
